<?xml version="1.0" standalone="no"?>
<!DOCTYPE svg PUBLIC "-//W3C//DTD SVG 20010904//EN"
 "http://www.w3.org/TR/2001/REC-SVG-20010904/DTD/svg10.dtd">
<svg version="1.0" xmlns="http://www.w3.org/2000/svg"
 width="674.000000pt" height="184.000000pt" viewBox="0 0 674.000000 184.000000"
 preserveAspectRatio="xMidYMid meet">

<g transform="translate(0.000000,184.000000) scale(0.100000,-0.100000)"
fill="#000000" stroke="none">
<path d="M0 920 l0 -920 3370 0 3370 0 0 920 0 920 -3370 0 -3370 0 0 -920z
m1525 392 c-16 -6 -20 -16 -20 -52 0 -44 -1 -45 -35 -50 l-35 -5 -3 -82 c-3
-83 -3 -83 23 -83 l25 0 0 -105 c0 -126 -16 -174 -51 -152 -18 11 -24 8 -50
-21 -74 -82 8 -157 88 -80 33 32 33 32 14 52 -19 21 -19 21 0 45 20 24 31 23
35 -4 1 -8 -2 -13 -7 -9 -5 3 -6 11 -3 17 4 7 3 9 -1 4 -11 -9 -14 -48 -4 -41
4 2 11 -1 15 -7 4 -8 3 -9 -4 -5 -13 8 -17 -6 -5 -18 8 -8 12 -48 6 -59 -3 -5
-6 -33 -7 -63 -1 -40 3 -55 14 -58 8 -2 -172 -4 -400 -4 -228 0 -408 2 -399 5
15 4 16 17 6 166 -2 27 1 36 10 33 9 -4 7 4 -4 21 -12 18 -13 24 -4 19 10 -7
12 -3 7 15 -4 16 0 11 13 -11 35 -64 122 -137 186 -156 233 -67 456 125 413
356 -19 104 -75 178 -171 226 -134 69 -324 23 -404 -97 -27 -41 -46 -51 -41
-21 1 9 -1 23 -6 31 -6 10 -5 12 2 7 7 -4 12 -3 12 3 0 5 3 18 7 28 6 16 5 17
-12 3 -10 -8 -16 -10 -12 -3 12 20 15 152 3 157 -6 2 176 4 404 4 228 0 406
-3 395 -6z m1441 -70 c9 -6 134 -585 134 -622 0 -6 -23 -10 -54 -10 -43 0 -56
4 -60 18 -3 9 -32 150 -65 312 -43 214 -56 297 -48 302 7 4 28 8 47 8 19 0 40
-4 46 -8z m310 -9 c-3 -10 -30 -142 -60 -293 -31 -151 -59 -286 -62 -300 -5
-18 -15 13 -35 110 l-28 135 34 176 c19 97 35 179 35 182 0 4 27 7 61 7 53 0
60 -2 55 -17z m174 -133 l0 -150 -55 0 -55 0 0 150 0 150 55 0 55 0 0 -150z
m190 -40 l0 -190 -55 0 -55 0 0 190 0 190 55 0 55 0 0 -190z m200 130 l0 -60
-80 0 -80 0 0 60 0 60 80 0 80 0 0 -60z m589 -114 l66 -169 3 172 2 171 55 0
55 0 0 -319 0 -319 -45 -4 c-68 -5 -79 3 -108 79 -14 37 -67 172 -117 298 -51
127 -94 238 -97 248 -5 16 1 18 58 15 l63 -3 65 -169z m371 24 l0 -150 -55 0
-55 0 0 150 0 150 55 0 55 0 0 -150z m241 143 c1 -5 2 -30 3 -57 1 -45 -1 -49
-26 -58 l-28 -10 0 -124 0 -124 -55 0 -55 0 0 146 0 146 42 44 c35 37 48 44
80 44 21 0 39 -3 39 -7z m164 -37 c44 -42 45 -45 45 -105 l0 -61 -54 0 -55 0
-3 43 c-2 35 -7 43 -25 45 -21 3 -23 9 -23 63 l0 59 35 0 c28 0 44 -9 80 -44z
m-2615 -20 c0 -52 -1 -55 -27 -58 l-28 -3 0 -200 0 -200 28 -3 c26 -3 27 -6
27 -58 l0 -54 -40 0 c-33 0 -48 7 -81 37 -22 21 -37 43 -34 50 2 8 0 11 -5 8
-7 -4 -10 72 -10 217 l0 223 41 48 c37 43 44 47 85 47 l44 0 0 -54z m168 11
l42 -43 0 -230 0 -230 -43 -42 c-37 -36 -49 -42 -85 -42 l-42 0 0 54 c0 52 1
55 28 58 l27 3 0 200 0 200 -27 3 c-27 3 -28 6 -28 58 l0 54 43 0 c37 0 48 -6
85 -43z m2682 -272 l0 -315 -55 0 -55 0 0 315 0 315 55 0 55 0 0 -315z m260
130 l0 -185 -105 0 -105 0 0 55 0 55 53 0 52 0 -3 130 -3 130 55 0 56 0 0
-185z m-3381 152 c-9 -7 -14 -19 -12 -27 4 -13 3 -13 -6 0 -11 16 3 40 23 40
6 0 4 -6 -5 -13z m3501 -2 c0 -7 -30 -13 -34 -7 -3 4 4 9 15 9 10 1 19 0 19
-2z m-3520 -56 c0 -4 -4 -10 -9 -13 -5 -3 -11 8 -13 26 -5 28 -4 29 9 13 7
-11 13 -22 13 -26z m-1344 1 c-27 -11 -61 -31 -76 -45 -35 -33 -50 -32 -19 1
27 30 94 64 124 63 11 0 -2 -9 -29 -19z m1317 -45 c-3 -9 -8 -14 -10 -11 -3 3
-2 9 2 15 9 16 15 13 8 -4z m2079 -386 l-3 -115 -55 -2 -54 -1 0 262 1 262 57
-145 57 -145 -3 -116z m-2014 144 c0 -129 -4 -208 -8 -183 -4 25 -8 39 -8 33
-1 -7 -5 -13 -9 -13 -5 0 -6 30 -4 67 2 47 6 62 12 48 5 -14 8 -8 7 25 0 36
-2 40 -8 20 -6 -21 -8 -22 -14 -8 -4 9 -3 25 3 36 11 20 4 62 -10 62 -5 0 -9
-7 -9 -15 0 -8 -5 -15 -10 -15 -7 0 -6 8 1 23 7 12 12 23 11 25 -7 9 0 19 13
19 9 0 13 -7 10 -16 -2 -9 0 -23 5 -31 7 -11 10 4 10 48 0 40 -4 61 -10 57 -6
-4 -5 5 2 19 6 14 13 26 15 26 1 0 2 -102 1 -227z m-1270 187 c9 0 28 -10 42
-21 l25 -20 -32 15 c-54 27 -107 21 -149 -16 -31 -27 -35 -29 -23 -9 16 26 87
63 107 56 8 -3 21 -5 30 -5z m2722 -125 l0 -55 -55 0 -55 0 0 55 0 55 55 0 55
0 0 -55z m1460 -94 l0 -149 -42 -36 c-32 -28 -50 -36 -80 -36 l-38 0 0 54 c0
49 2 55 23 58 20 3 22 9 25 76 l3 72 -31 0 c-30 0 -30 0 -30 55 l0 55 85 0 85
0 0 -149z m-4185 110 c13 -42 -27 -70 -54 -37 -9 11 -10 20 -1 35 13 26 47 27
55 2z m3095 -16 l0 -35 -120 0 -120 0 0 35 0 35 120 0 120 0 0 -35z m-1899
-38 c-10 -9 -11 -8 -5 6 3 10 9 15 12 12 3 -3 0 -11 -7 -18z m1189 -132 l0
-145 -55 0 -55 0 0 145 0 145 55 0 55 0 0 -145z m1350 0 l0 -145 -55 0 -55 0
0 145 0 145 55 0 55 0 0 -145z m-3787 58 c43 -7 80 1 101 23 9 8 16 11 16 6 0
-5 -10 -16 -22 -24 -54 -35 -122 -25 -163 23 l-20 24 26 -23 c14 -12 42 -25
62 -29z m507 4 c0 -5 -4 -5 -10 -2 -5 3 -10 14 -10 23 0 15 2 15 10 2 5 -8 10
-19 10 -23z m2120 -97 l0 -110 -55 0 -55 0 0 110 0 110 55 0 55 0 0 -110z
m1350 71 c0 -55 8 -71 36 -71 23 0 24 -3 23 -55 l-2 -55 -42 0 c-34 0 -48 6
-83 40 -41 40 -42 42 -42 110 l0 70 55 0 55 0 0 -39z m705 -76 l0 -100 -52 -3
-53 -3 0 106 0 106 53 -3 52 -3 0 -100z m-1855 -56 l0 -61 -77 6 c-43 3 -79 6
-80 6 -2 0 -3 25 -3 55 l0 55 80 0 80 0 0 -61z m-1500 -33 c0 -3 -4 -8 -10
-11 -5 -3 -10 -1 -10 4 0 6 5 11 10 11 6 0 10 -2 10 -4z"/>
</g>
</svg>
