<?xml version="1.0" standalone="no"?>
<!DOCTYPE svg PUBLIC "-//W3C//DTD SVG 20010904//EN"
 "http://www.w3.org/TR/2001/REC-SVG-20010904/DTD/svg10.dtd">
<svg version="1.0" xmlns="http://www.w3.org/2000/svg"
 width="211.000000pt" height="203.000000pt" viewBox="0 0 211.000000 203.000000"
 preserveAspectRatio="xMidYMid meet">

<g transform="translate(0.000000,203.000000) scale(0.100000,-0.100000)"
fill="#000000" stroke="none">
<path d="M0 1015 l0 -1015 1055 0 1055 0 0 1015 0 1015 -1055 0 -1055 0 0
-1015z m1620 490 l0 -85 -55 0 -56 0 3 -122 3 -123 33 -3 32 -3 0 -159 c0
-146 -2 -161 -23 -198 l-22 -40 -29 21 -29 21 -44 -49 c-43 -49 -53 -86 -37
-130 9 -23 61 -47 87 -39 25 7 117 93 117 109 0 5 -9 16 -20 23 -26 16 -25 24
5 72 23 37 25 48 28 207 1 92 4 -2 5 -209 l2 -378 -565 0 -565 0 0 203 0 202
29 -50 c71 -123 206 -215 343 -234 240 -33 461 117 523 356 58 222 -75 469
-295 548 -215 78 -456 -11 -571 -210 l-29 -50 0 203 0 202 565 0 565 0 0 -85z
m-766 -154 c-81 -23 -143 -61 -193 -117 -46 -53 -54 -49 -16 7 49 70 152 128
230 128 39 0 38 -1 -21 -18z m152 -170 c39 -18 84 -63 84 -84 0 -5 -9 2 -20
16 -26 33 -97 67 -140 67 -43 0 -114 -34 -140 -67 -11 -14 -20 -21 -20 -16 0
41 96 103 160 103 19 0 53 -9 76 -19z m-42 -137 c32 -32 10 -94 -34 -94 -26 0
-50 27 -50 55 0 28 24 55 50 55 10 0 26 -7 34 -16z m-111 -193 c71 -34 143
-22 202 33 39 37 46 33 13 -9 -27 -34 -92 -65 -138 -65 -64 0 -160 62 -160
103 0 5 9 -2 20 -16 11 -14 39 -35 63 -46z"/>
</g>
</svg>
